<svg xmlns="http://www.w3.org/2000/svg" width="32" height="32" viewBox="0 0 32 32">
  <path fill="#ED5EA9" d="M29.78 15.07c.14-.2.22-.4.22-.58 0-.46-.36-1.17-.77-1.52-.3-.26-1.44-.75-2.17-1.05L25.5 10.6c-.06-.1-.14-.17-.24-.22l-.4-.35-.2-.55-.1-.15c-1.2-1.53-3.28-2.85-3.88-3.22-.15-.28-.5-.8-1.26-1.3-1.33-.92-3.35-1.53-6-1.75-.37-.02-.76-.04-1.14-.04-1.6 0-3.15.32-4.58.92-1.16.5-2.22 1.16-3.18 2-1.64 1.46-2.4 2.9-2.45 2.97-.1.15-.1.36 0 .54l10.5 19.82v.02l.02.02v.03h.03c0 .02 0 .03.02.03v.02l.08.06h.02c0 .02.02.02.03.03v.02h.04l.05.02h.03l.03.03H13v.02h.12c.1 0 2.75-.2 5.34-1.08 3.25-1.13 4.15-3.55 4.32-5.4.1-1.07-.03-2.07-.16-2.74.95.14 2.46.34 3.26.34h.28c1.37-.12 1.67-1.27 1.68-1.3v-.1l.04-.4c1.06-.76 1.2-2.33 1.24-2.87v-.05l.26-.34.4-.55v-.02zm-13.7 12.87c-1 .22-1.9.35-2.45.4-.1-1.9.13-3.63.66-5.18.46-1.35 1.16-2.55 2.08-3.6 1.1-1.2 2.26-1.9 2.86-2.2.46.74 1 1.45 1.64 2.14-.5.32-1.2.84-1.9 1.6-.78.84-1.4 1.8-1.88 2.87-.54 1.2-.88 2.53-1 3.97zm-.52-9.2c-1.04 1.16-1.84 2.5-2.36 4-.4 1.18-.66 2.46-.73 3.83l-1.34-2.52v-.02c-.3-3.25.3-5.73 1.85-7.4.9-.96 2.08-1.64 3.5-2 .6-.17 1.13-.22 1.48-.25l.14.5c.15.5.34 1 .58 1.47-.7.36-1.94 1.1-3.12 2.4zm2.2-5.5c-1.2.1-3.74.56-5.62 2.58-1.37 1.47-2.12 3.45-2.24 5.9L8.23 18.6c0-.03 0-.05.02-.07.2-2.6 1.15-4.63 2.8-6 1.56-1.27 3.48-1.74 4.82-1.92.8-.1 1.5-.1 1.97-.1-.17.92-.2 1.83-.1 2.73zm.36-3.9c-.5-.02-1.35-.02-2.35.1-2.16.28-4.05 1.04-5.45 2.2-1.54 1.26-2.56 3-3 5.18l-1.8-3.34c.5-1.78 1.5-3.22 3.02-4.28 1.3-.9 2.95-1.55 4.92-1.9 2.3-.43 4.5-.37 5.7-.3-.32.56-.74 1.36-1.04 2.34zM5.28 6.8c.88-.75 1.84-1.37 2.86-1.8 1.3-.55 2.68-.82 4.14-.82.33 0 .68 0 1.03.04 1.62.14 3.85.5 5.32 1.45l.22.15c-1.3-.07-3.38-.08-5.56.32-2.15.4-3.96 1.1-5.4 2.1-1.42 1-2.46 2.27-3.1 3.82l-1.53-2.9c.27-.43.94-1.4 2.02-2.35zM21.62 23c-.2 2.17-1.4 3.65-3.54 4.4l-.78.23c.14-1.14.43-2.2.85-3.15.42-.95.97-1.8 1.64-2.54.6-.66 1.2-1.13 1.66-1.42.13.58.26 1.5.17 2.47zM28 15.7l-.04.22c-.04.42-.14 1.64-.82 2.08-.22 0-.8 0-1.94-.18-.3-.05-.6.16-.66.5-.04.3.18.6.5.65.74.12 1.28.16 1.65.18-.06.1-.2.33-.63.37h-.18c-.96 0-3.14-.32-3.78-.43-1.42-1.44-2.4-2.96-2.9-4.53-.4-1.27-.47-2.58-.22-3.88.3-1.6.98-2.8 1.38-3.4.75.5 2.28 1.53 3.2 2.68l.14.35H23c-.33 0-.6.26-.6.58 0 .33.27.6.6.6 0 .32.27.57.6.57.32 0 .58-.27.58-.6h.6l1.6 1.4.17.1c.8.32 1.77.76 1.94.9.06.04.12.14.18.24l-.6-.05c-.32-.03-.6.2-.64.53-.03.3.2.6.53.64l.26.02c-.13.2-.2.32-.23.46z"/>
</svg>