<svg xmlns="http://www.w3.org/2000/svg" width="16" height="16" viewBox="0 0 100 100">
  <path fill="black" d="M90.7,46.7h-4.2c-1.5-7.5-8.2-13.2-16.1-13.2c-6.7,0-12.4,4-15,9.8c-1.7-1-3.6-1.6-5.5-1.6c-2,0-4,0.6-5.7,1.7 c-2.5-5.8-8.3-9.9-15-9.9c-7.9,0-14.6,5.6-16.1,13.1H9.3c-1.7,0-3,1.3-3,3s1.3,3,3,3h3.8c1.3,7.8,8,13.7,16.2,13.7 c8.9,0,16.2-7.2,16.4-16.1c1.1-1.6,2.7-2.6,4.3-2.6c1.5,0,3,0.8,4.1,2.3c0,9,7.4,16.4,16.4,16.4c8.1,0,14.9-5.9,16.2-13.7h4.1 c1.7,0,3-1.3,3-3S92.4,46.7,90.7,46.7z M29.2,60.4c-5.7,0-10.4-4.7-10.4-10.4s4.7-10.4,10.4-10.4c5.7,0,10.4,4.7,10.4,10.4 S35,60.4,29.2,60.4z M70.5,60.4c-5.7,0-10.4-4.7-10.4-10.4s4.7-10.4,10.4-10.4c5.7,0,10.4,4.7,10.4,10.4S76.2,60.4,70.5,60.4z"/>
</svg>